<?xml version="1.0" encoding="UTF-8" standalone="no"?>
<!DOCTYPE svg PUBLIC "-//W3C//DTD SVG 1.1//EN" "http://www.w3.org/Graphics/SVG/1.1/DTD/svg11.dtd">
<svg width="100%" height="100%" viewBox="0 0 1967 1967" version="1.1" xmlns="http://www.w3.org/2000/svg" xmlns:xlink="http://www.w3.org/1999/xlink" xml:space="preserve" xmlns:serif="http://www.serif.com/" style="fill-rule:evenodd;clip-rule:evenodd;stroke-linejoin:round;stroke-miterlimit:2;">
    <g transform="matrix(0.24,0,0,0.24,0,0)">
        <g transform="matrix(1,0,0,1,0,-218.532)">
            <path d="M1496,3959.06L950.203,4417.04C862.964,4490.24 732.707,4478.85 659.505,4391.61L394.24,4075.48C321.038,3988.24 332.434,3857.98 419.672,3784.78L3939.49,831.304C3985.17,792.972 4042.65,777.837 4097.55,784.642C4152.46,777.837 4209.94,792.972 4255.62,831.304L7775.44,3784.78C7862.67,3857.98 7874.07,3988.24 7800.87,4075.48L7535.6,4391.61C7462.4,4478.85 7332.14,4490.24 7244.9,4417.04L6696,3956.45L6696,7117.44C6696,7519.54 6369.54,7846 5967.44,7846L2224.57,7846C1822.46,7846 1496,7519.54 1496,7117.44L1496,3959.06ZM1942.45,3584.45C1923.35,3624.8 1912.67,3669.89 1912.67,3717.47L1912.67,7117.44C1912.67,7289.58 2052.42,7429.33 2224.57,7429.33L5967.44,7429.33C6139.58,7429.33 6279.33,7289.58 6279.33,7117.44L6279.33,3717.47C6279.33,3668.16 6267.86,3621.52 6247.44,3580.07L4097.55,1776.1L1942.45,3584.45Z"/>
        </g>
    </g>
</svg>
