<?xml version="1.0" standalone="no"?>
<!DOCTYPE svg PUBLIC "-//W3C//DTD SVG 20010904//EN"
 "http://www.w3.org/TR/2001/REC-SVG-20010904/DTD/svg10.dtd">
<svg version="1.0" xmlns="http://www.w3.org/2000/svg"
 width="812.000000pt" height="812.000000pt" viewBox="0 0 812.000000 812.000000"
 preserveAspectRatio="xMidYMid meet">

<g transform="translate(0.000000,812.000000) scale(0.100000,-0.100000)"
fill="#000000" stroke="none">
<path d="M2326 6685 c-151 -29 -281 -100 -383 -208 -213 -228 -236 -587 -72
-1088 l42 -127 -50 -103 c-123 -254 -197 -504 -235 -789 -16 -123 -15 -468 1
-590 96 -716 480 -1345 1061 -1739 98 -67 101 -70 74 -76 -224 -50 -376 -123
-468 -225 -80 -89 -102 -197 -59 -292 l22 -48 780 0 780 0 21 58 c15 40 21 72
18 107 l-4 51 225 -1 226 0 0 -80 c0 -61 4 -88 18 -108 l17 -27 785 0 785 0
16 25 c25 39 30 142 9 206 -27 81 -133 183 -245 237 -76 36 -202 79 -284 97
-27 6 -24 9 74 76 581 394 965 1023 1061 1739 16 122 17 467 1 590 -38 285
-113 539 -234 787 l-50 103 36 102 c86 250 122 456 113 648 -6 134 -23 209
-66 305 -78 170 -238 300 -436 356 -103 29 -290 32 -412 6 -164 -35 -349 -110
-526 -214 l-79 -46 -111 31 c-253 71 -430 96 -692 96 -262 0 -439 -25 -691
-95 l-111 -31 -96 56 c-305 180 -619 256 -861 211z m2073 -779 c668 -125 1198
-569 1432 -1199 67 -180 99 -351 106 -569 15 -446 -117 -851 -392 -1203 -68
-87 -217 -237 -306 -309 -353 -283 -843 -434 -1288 -397 -473 39 -873 229
-1202 567 -287 297 -458 658 -510 1077 -15 122 -7 398 15 515 69 372 230 693
482 961 278 295 677 506 1064 560 41 6 86 13 100 15 58 10 419 -3 499 -18z"/>
<path d="M3666 3654 l-400 -395 109 -109 110 -110 295 295 295 295 298 -292
299 -291 106 106 107 107 -395 395 c-217 217 -402 395 -410 394 -8 0 -195
-178 -414 -395z"/>
</g>
</svg>
