<?xml version="1.0" encoding="UTF-8" standalone="no"?>
<!DOCTYPE svg PUBLIC "-//W3C//DTD SVG 1.1//EN" "http://www.w3.org/Graphics/SVG/1.1/DTD/svg11.dtd">
<svg width="100%" height="100%" viewBox="0 0 1967 1967" version="1.1" xmlns="http://www.w3.org/2000/svg" xmlns:xlink="http://www.w3.org/1999/xlink" xml:space="preserve" xmlns:serif="http://www.serif.com/" style="fill-rule:evenodd;clip-rule:evenodd;stroke-linejoin:round;stroke-miterlimit:2;">
    <g transform="matrix(0.24,0,0,0.24,0,0)">
        <g transform="matrix(1.36807,0,0,1.1856,-554.272,-336.481)">
            <path d="M6140.24,1524.53L6140.24,5952.68C6140.24,6476.39 5771.77,6901.57 5317.91,6901.57L1480.39,6901.57C1026.53,6901.57 658.06,6476.39 658.06,5952.68L658.06,1524.53C658.06,1000.83 1026.53,575.644 1480.39,575.644L5317.91,575.644C5771.77,575.644 6140.24,1000.83 6140.24,1524.53ZM5835.67,1524.53C5835.67,1194.79 5603.67,927.084 5317.91,927.084L1480.39,927.084C1194.63,927.084 962.626,1194.79 962.626,1524.53L962.626,5952.68C962.626,6282.43 1194.63,6550.13 1480.39,6550.13L5317.91,6550.13C5603.67,6550.13 5835.67,6282.43 5835.67,5952.68L5835.67,1524.53Z"/>
        </g>
        <g transform="matrix(0.26972,0,0,0.781151,2935.25,-53.1864)">
            <path d="M5323.12,2607.29L5323.12,8015.98C5323.12,8113.13 5094.7,8192 4813.34,8192L3793.76,8192C3512.4,8192 3283.97,8113.13 3283.97,8015.98L3283.97,2607.29C3283.97,2510.14 3512.4,2431.27 3793.76,2431.27L4813.34,2431.27C5094.7,2431.27 5323.12,2510.14 5323.12,2607.29Z"/>
        </g>
        <g transform="matrix(1.65156e-17,0.26972,-0.781151,4.78317e-17,8245.19,2935.25)">
            <path d="M5323.12,2607.29L5323.12,8015.98C5323.12,8113.13 5094.7,8192 4813.34,8192L3793.76,8192C3512.4,8192 3283.97,8113.13 3283.97,8015.98L3283.97,2607.29C3283.97,2510.14 3512.4,2431.27 3793.76,2431.27L4813.34,2431.27C5094.7,2431.27 5323.12,2510.14 5323.12,2607.29Z"/>
        </g>
    </g>
</svg>
