<?xml version="1.0" encoding="UTF-8" standalone="no"?>
<!DOCTYPE svg PUBLIC "-//W3C//DTD SVG 1.1//EN" "http://www.w3.org/Graphics/SVG/1.1/DTD/svg11.dtd">
<svg width="100%" height="100%" viewBox="0 0 1967 1967" version="1.1" xmlns="http://www.w3.org/2000/svg" xmlns:xlink="http://www.w3.org/1999/xlink" xml:space="preserve" xmlns:serif="http://www.serif.com/" style="fill-rule:evenodd;clip-rule:evenodd;stroke-linejoin:round;stroke-miterlimit:2;">
    <g transform="matrix(0.24,0,0,0.24,0,0)">
        <g transform="matrix(3.55602,0,0,3.55602,-8999.16,-8854.06)">
            <circle cx="3682.54" cy="3641.73" r="1054.55" style="fill:rgb(235,235,235);fill-opacity:0;"/>
            <clipPath id="_clip1">
                <circle cx="3682.54" cy="3641.73" r="1054.55"/>
            </clipPath>
            <g clip-path="url(#_clip1)">
                <g transform="matrix(1.04613,0,0,0.72832,-169.888,1920.29)">
                    <path d="M3682.54,2587.18C4264.56,2587.18 4737.09,3059.71 4737.09,3641.73C4737.09,4223.76 4264.56,4696.28 3682.54,4696.28C3100.51,4696.28 2627.99,4223.76 2627.99,3641.73C2627.99,3059.71 3100.51,2587.18 3682.54,2587.18ZM3682.54,2748.06C3365.43,2748.06 3083.01,2898.03 2908.69,3135.76C2804.32,3278.11 2739.99,3451.87 2739.99,3641.73C2739.99,3831.6 2804.32,4005.36 2908.69,4147.7C3083.01,4385.44 3365.43,4535.4 3682.54,4535.4C3999.65,4535.4 4282.07,4385.44 4456.39,4147.7C4560.76,4005.36 4625.08,3831.6 4625.08,3641.73C4625.08,3451.87 4560.76,3278.11 4456.39,3135.76C4282.07,2898.03 3999.65,2748.06 3682.54,2748.06Z"/>
                </g>
            </g>
        </g>
        <g transform="matrix(3.55602,0,0,3.55602,-8999.16,-8854.06)">
            <path d="M3682.54,2587.18C4264.56,2587.18 4737.09,3059.71 4737.09,3641.73C4737.09,4223.76 4264.56,4696.28 3682.54,4696.28C3100.51,4696.28 2627.99,4223.76 2627.99,3641.73C2627.99,3059.71 3100.51,2587.18 3682.54,2587.18ZM3682.54,2704.36C3165.18,2704.36 2745.16,3124.38 2745.16,3641.73C2745.16,4159.09 3165.18,4579.11 3682.54,4579.11C4199.89,4579.11 4619.92,4159.09 4619.92,3641.73C4619.92,3124.38 4199.89,2704.36 3682.54,2704.36Z"/>
        </g>
        <g transform="matrix(1.51723,0,0,1.51723,-1491.27,-2106.36)">
            <circle cx="3682.54" cy="3641.73" r="1054.55" style="fill:rgb(235,235,235);fill-opacity:0;"/>
        </g>
        <g transform="matrix(1.51723,0,0,1.51723,-1491.27,-2106.36)">
            <path d="M3682.54,2587.18C4264.56,2587.18 4737.09,3059.71 4737.09,3641.73C4737.09,4223.76 4264.56,4696.28 3682.54,4696.28C3100.51,4696.28 2627.99,4223.76 2627.99,3641.73C2627.99,3059.71 3100.51,2587.18 3682.54,2587.18ZM3682.54,2861.8C3252.08,2861.8 2902.61,3211.28 2902.61,3641.73C2902.61,4072.19 3252.08,4421.66 3682.54,4421.66C4112.99,4421.66 4462.47,4072.19 4462.47,3641.73C4462.47,3211.28 4112.99,2861.8 3682.54,2861.8Z"/>
        </g>
    </g>
</svg>
