<?xml version="1.0" encoding="UTF-8" standalone="no"?>
<!DOCTYPE svg PUBLIC "-//W3C//DTD SVG 1.1//EN" "http://www.w3.org/Graphics/SVG/1.1/DTD/svg11.dtd">
<svg width="100%" height="100%" viewBox="0 0 1967 1967" version="1.1" xmlns="http://www.w3.org/2000/svg" xmlns:xlink="http://www.w3.org/1999/xlink" xml:space="preserve" xmlns:serif="http://www.serif.com/" style="fill-rule:evenodd;clip-rule:evenodd;stroke-linejoin:round;stroke-miterlimit:2;">
    <g transform="matrix(0.24,0,0,0.24,0,0)">
        <g transform="matrix(1.20131,0,0,1.16349,-719.828,-874.36)">
            <path d="M4591.21,5618.65L1536.51,5618.65C1178.16,5618.65 887.222,5318.26 887.222,4948.26L887.222,1819.75C887.222,1449.75 1178.16,1149.36 1536.51,1149.36L6481.12,1149.36C6839.47,1149.36 7130.41,1449.75 7130.41,1819.75L7130.41,4948.26C7130.41,5318.26 6839.47,5618.65 6481.12,5618.65L5978.73,5618.65L3665.34,7394.49L4591.21,5618.65ZM6783.57,1819.75C6783.57,1647.4 6648.04,1507.48 6481.12,1507.48L1536.51,1507.48C1369.59,1507.48 1234.07,1647.4 1234.07,1819.75L1234.07,4948.26C1234.07,5120.61 1369.59,5260.53 1536.51,5260.53L6481.12,5260.53C6648.04,5260.53 6783.57,5120.61 6783.57,4948.26L6783.57,1819.75ZM6381.23,3272.27L6381.23,3495.74C6381.23,3557.4 6332.74,3607.47 6273.01,3607.47L1744.62,3607.47C1684.89,3607.47 1636.4,3557.4 1636.4,3495.74L1636.4,3272.27C1636.4,3210.61 1684.89,3160.54 1744.62,3160.54L6273.01,3160.54C6332.74,3160.54 6381.23,3210.61 6381.23,3272.27ZM6381.23,2335.44L6381.23,2558.91C6381.23,2620.57 6332.74,2670.64 6273.01,2670.64L1744.62,2670.64C1684.89,2670.64 1636.4,2620.57 1636.4,2558.91L1636.4,2335.44C1636.4,2273.77 1684.89,2223.71 1744.62,2223.71L6273.01,2223.71C6332.74,2223.71 6381.23,2273.77 6381.23,2335.44ZM6381.23,4209.11L6381.23,4432.57C6381.23,4494.24 6332.74,4544.3 6273.01,4544.3L1744.62,4544.3C1684.89,4544.3 1636.4,4494.24 1636.4,4432.57L1636.4,4209.11C1636.4,4147.44 1684.89,4097.37 1744.62,4097.37L6273.01,4097.37C6332.74,4097.37 6381.23,4147.44 6381.23,4209.11Z"/>
        </g>
    </g>
</svg>
