<?xml version="1.0" encoding="utf-8"?>
<!-- Generator: Adobe Illustrator 19.0.0, SVG Export Plug-In . SVG Version: 6.00 Build 0)  -->
<svg version="1.1" id="Layer_1" xmlns="http://www.w3.org/2000/svg" xmlns:xlink="http://www.w3.org/1999/xlink" x="0px" y="0px"
	 viewBox="-25 27 48 48" style="enable-background:new -25 27 48 48;" xml:space="preserve">
<path d="M14,27c5,0,9,4,9,9v30c0,5-4,9-9,9h-30c-5,0-9-4-9-9v-5.3l2.6,2.6c1,1,2.1,1.6,3.4,2.1V66c0,1.7,1.3,3,3,3h30
	c1.7,0,3-1.3,3-3V36c0-1.7-1.3-3-3-3h-30c-1.7,0-3,1.3-3,3v0.5c-1.2,0.4-2.4,1.1-3.4,2.1l-2.6,2.6V36c0-5,4-9,9-9H14z M-14.9,42.2
	c1.1,0.5,1.9,1.6,1.9,2.8v3h9c1.7,0,3,1.3,3,3c0,1.7-1.3,3-3,3h-9v3c0,1.2-0.7,2.3-1.9,2.8c-1.1,0.5-2.4,0.2-3.3-0.7l-6-6
	c-0.6-0.6-0.9-1.4-0.9-2.1c0-0.8,0.3-1.5,0.9-2.1l6-6C-17.3,42-16,41.8-14.9,42.2z"/>
</svg>
