<?xml version="1.0" encoding="utf-8"?>
<!-- Generator: Adobe Illustrator 19.0.0, SVG Export Plug-In . SVG Version: 6.00 Build 0)  -->
<svg version="1.1" id="Layer_1" xmlns="http://www.w3.org/2000/svg" xmlns:xlink="http://www.w3.org/1999/xlink" x="0px" y="0px"
	 viewBox="-25 27 48 48" style="enable-background:new -25 27 48 48;" xml:space="preserve">
<path d="M14,66l-6,9l-6-9h-18c-5,0-9-4-9-9V36c0-5,4-9,9-9h30c5,0,9,4,9,9v21C23,62,19,66,14,66z M-16,57h15v-3h-15V57z M14,36h-30
	v3h30V36z M14,42h-30v3h30V42z M14,48h-30v3h30V48z"/>
</svg>
