<?xml version="1.0" encoding="utf-8"?>
<!-- Generator: Adobe Illustrator 19.0.0, SVG Export Plug-In . SVG Version: 6.00 Build 0)  -->
<svg version="1.1" id="Layer_1" xmlns="http://www.w3.org/2000/svg" xmlns:xlink="http://www.w3.org/1999/xlink" x="0px" y="0px"
	 viewBox="-25 27 48 48" style="enable-background:new -25 27 48 48;" xml:space="preserve">
<path d="M17,75h-30c-1.7,0-3-1.3-3-3v-3c1.7,0,3-1.3,3-3v-3c0-1.7-1.3-3-3-3V42c1.7,0,3-1.3,3-3v-3c0-1.7-1.3-3-3-3v-3
	c0-1.7,1.3-3,3-3h30c1.7,0,3,1.3,3,3v42C20,73.7,18.7,75,17,75z M11,58.5c-0.5-2.8-2.3-5.1-4.7-6.4C7.4,51.1,8,49.6,8,48v-3
	c0-3.3-2.7-6-6-6s-6,2.7-6,6v3c0,1.6,0.6,3.1,1.7,4.1c-2.4,1.3-4.2,3.6-4.7,6.4l0,0C-7,61-5,63-2.5,63h9C9,63,11,61,11,58.5L11,58.5
	z M-17.5,39h-3c-0.8,0-1.5-0.7-1.5-1.5s0.7-1.5,1.5-1.5h3c0.8,0,1.5,0.7,1.5,1.5S-16.7,39-17.5,39z M-22,30c0-1.7,1.3-3,3-3v6h-3V30
	z M-19,60h-3V42h3V60z M-20.5,63h3c0.8,0,1.5,0.7,1.5,1.5c0,0.8-0.7,1.5-1.5,1.5h-3c-0.8,0-1.5-0.7-1.5-1.5
	C-22,63.7-21.3,63-20.5,63z M-19,75c-1.7,0-3-1.3-3-3v-3h3V75z"/>
</svg>
