<?xml version="1.0" encoding="utf-8"?>
<!-- Generator: Adobe Illustrator 19.0.0, SVG Export Plug-In . SVG Version: 6.00 Build 0)  -->
<svg version="1.1" id="Layer_1" xmlns="http://www.w3.org/2000/svg" xmlns:xlink="http://www.w3.org/1999/xlink" x="0px" y="0px"
	 viewBox="-25 27 48 48" style="enable-background:new -25 27 48 48;" xml:space="preserve">
<path d="M11,27l-21,21l-6,18l18-6l21-21L11,27z M-10,60l3-9l6,6L-10,60z M2,54l-6-6l9-9l6,6L2,54z M17,53.5l6-6V66c0,5-4,9-9,9h-30
	c-5,0-9-4-9-9V36c0-5,4-9,9-9H2.5l-6,6H-16c-1.7,0-3,1.3-3,3v30c0,1.7,1.3,3,3,3h30c1.7,0,3-1.3,3-3V53.5z"/>
</svg>
