<?xml version="1.0" encoding="utf-8"?>
<!-- Generator: Adobe Illustrator 19.0.0, SVG Export Plug-In . SVG Version: 6.00 Build 0)  -->
<svg version="1.1" id="Layer_1" xmlns="http://www.w3.org/2000/svg" xmlns:xlink="http://www.w3.org/1999/xlink" x="0px" y="0px"
	 viewBox="-25 27 48 48" style="enable-background:new -25 27 48 48;" xml:space="preserve">
<path d="M14,75h-30c-5,0-9-4-9-9v-9l12-12h3v6h-0.5l-8.5,9h9v3c0,1.7,1.3,3,3,3H5c1.7,0,3-1.3,3-3v-3h9l-8.5-9H8v-6h3l12,12v9
	C23,71,19,75,14,75z M5,39H2v9c0,1.7-1.3,3-3,3c-1.7,0-3-1.3-3-3v-9h-3c-1.2,0-2.3-0.7-2.8-1.9c-0.5-1.1-0.2-2.4,0.7-3.3l6-6
	C-2.5,27.3-1.8,27-1,27s1.5,0.3,2.1,0.9l6,6C8,34.7,8.2,36,7.8,37.1C7.3,38.3,6.2,39,5,39z"/>
</svg>
