<?xml version="1.0" encoding="utf-8"?>
<!-- Generator: Adobe Illustrator 19.0.0, SVG Export Plug-In . SVG Version: 6.00 Build 0)  -->
<svg version="1.1" id="Layer_1" xmlns="http://www.w3.org/2000/svg" xmlns:xlink="http://www.w3.org/1999/xlink" x="0px" y="0px"
	 viewBox="-25 27 48 48" style="enable-background:new -25 27 48 48;" xml:space="preserve">
<path d="M-5.6,60.1c-2.2,0-5.7-8.8-7.4-5.2c-0.7,1.5-1.9,4.6-3,7.2v1c0,1.7,1.3,3,3,3h24c1.7,0,3-1.3,3-3v-1.4
	c-1.7-3.8-3.9-10.1-6-12.6C3.7,44.1-1.5,60.1-5.6,60.1z M14,27h-30c-5,0-9,4-9,9v30c0,5,4,9,9,9h30c5,0,9-4,9-9V36
	C23,31,19,27,14,27z M17,66c0,1.7-1.3,3-3,3h-30c-1.7,0-3-1.3-3-3V36c0-1.7,1.3-3,3-3h30c1.7,0,3,1.3,3,3V66z M-11.5,45
	C-9,45-7,43-7,40.5S-9,36-11.5,36s-4.5,2-4.5,4.5S-14,45-11.5,45z"/>
</svg>
