<?xml version="1.0" encoding="utf-8"?>
<!-- Generator: Adobe Illustrator 19.0.0, SVG Export Plug-In . SVG Version: 6.00 Build 0)  -->
<svg version="1.1" id="Layer_1" xmlns="http://www.w3.org/2000/svg" xmlns:xlink="http://www.w3.org/1999/xlink" x="0px" y="0px"
	 viewBox="-25 27 48 48" style="enable-background:new -25 27 48 48;" xml:space="preserve">
<path d="M20.4,59.6L8,47.3V33c1.7,0,3-1.3,3-3s-1.3-3-3-3h-18c-1.7,0-3,1.3-3,3s1.3,3,3,3v14.3l-12.4,12.4c-3.5,3.5-3.5,9.2,0,12.7
	c1.8,1.8,4.1,2.6,6.4,2.6h30c2.3,0,4.6-0.9,6.4-2.6C23.9,68.8,23.9,63.2,20.4,59.6z M16.1,68.1C15.4,68.9,14.5,69,14,69h-30
	c-0.5,0-1.4-0.1-2.1-0.9c-1.2-1.2-1.2-3.1,0-4.2L-4,49.8V33h6v16.8l14.1,14.1c0.8,0.8,0.9,1.7,0.9,2.1C17,66.5,16.9,67.4,16.1,68.1z
	 M8,60l6,6h-30l6-6H8z"/>
</svg>
