<?xml version="1.0" encoding="utf-8"?>
<!-- Generator: Adobe Illustrator 19.0.0, SVG Export Plug-In . SVG Version: 6.00 Build 0)  -->
<svg version="1.1" id="Layer_1" xmlns="http://www.w3.org/2000/svg" xmlns:xlink="http://www.w3.org/1999/xlink" x="0px" y="0px"
	 viewBox="-25 27 48 48" style="enable-background:new -25 27 48 48;" xml:space="preserve">
<path d="M17,57c-3.3,0-6-2.7-6-6s2.7-6,6-6s6,2.7,6,6S20.3,57,17,57z M-1,57c-3.3,0-6-2.7-6-6s2.7-6,6-6s6,2.7,6,6S2.3,57-1,57z
	 M-19,57c-3.3,0-6-2.7-6-6s2.7-6,6-6s6,2.7,6,6S-15.7,57-19,57z"/>
</svg>
