<?xml version="1.0" encoding="utf-8"?>
<!-- Generator: Adobe Illustrator 19.0.0, SVG Export Plug-In . SVG Version: 6.00 Build 0)  -->
<svg version="1.1" id="Layer_1" xmlns="http://www.w3.org/2000/svg" xmlns:xlink="http://www.w3.org/1999/xlink" x="0px" y="0px"
	 viewBox="-25 27 48 48" style="enable-background:new -25 27 48 48;" xml:space="preserve">
<path d="M-1,75c-13.3,0-24-10.7-24-24s10.7-24,24-24s24,10.7,24,24S12.3,75-1,75z M-1,33c-9.9,0-18,8.1-18,18c0,9.9,8.1,18,18,18
	s18-8.1,18-18C17,41.1,8.9,33-1,33z M-1,66c-3.2,0-6.2-1-8.7-2.8c-0.2-0.5-0.3-1.1-0.3-1.7l0,0c0.5-2.8,2.3-5.1,4.7-6.4
	C-6.4,54.1-7,52.6-7,51v-3c0-3.3,2.7-6,6-6s6,2.7,6,6v3c0,1.6-0.6,3.1-1.7,4.1c2.4,1.3,4.2,3.6,4.7,6.4l0,0c0,0.6-0.1,1.2-0.3,1.7
	C5.2,65,2.2,66-1,66z"/>
</svg>
