<?xml version="1.0" encoding="utf-8"?>
<!-- Generator: Adobe Illustrator 19.0.0, SVG Export Plug-In . SVG Version: 6.00 Build 0)  -->
<svg version="1.1" id="Layer_1" xmlns="http://www.w3.org/2000/svg" xmlns:xlink="http://www.w3.org/1999/xlink" x="0px" y="0px"
	 viewBox="-25 27 48 48" style="enable-background:new -25 27 48 48;" xml:space="preserve">
<path d="M25.7,60.6C25.7,60.6,25.7,60.6,25.7,60.6L25.7,60.6C25.7,60.6,25.7,60.6,25.7,60.6z M14,75h-30c-5,0-9-4-9-9V36
	c0-5,4-9,9-9h15v6h-15c-1.7,0-3,1.3-3,3v30c0,1.7,1.3,3,3,3h30c1.7,0,3-1.3,3-3v-8l6-5v13C23,71,19,75,14,75z M5,48.1
	c-9.7,0.7-17.6,7.8-19.3,17.2C-15.4,62.8-16,60-16,57c0-11.6,9.4-21,21-21v-9l18,15L5,57V48.1z"/>
</svg>
