<?xml version="1.0" encoding="utf-8"?>
<!-- Generator: Adobe Illustrator 19.0.0, SVG Export Plug-In . SVG Version: 6.00 Build 0)  -->
<svg version="1.1" id="Layer_1" xmlns="http://www.w3.org/2000/svg" xmlns:xlink="http://www.w3.org/1999/xlink" x="0px" y="0px"
	 viewBox="-25 27 48 48" style="enable-background:new -25 27 48 48;" xml:space="preserve">
<path d="M-10,51h3v-3h-3V51z M-13,39v3h3v-3H-13z M-13,54h3v-3h-3V54z M-4,45h-3v3h3V45z M14,27h-30c-5,0-9,4-9,9v30c0,5,4,9,9,9h30
	c5,0,9-4,9-9V36C23,31,19,27,14,27z M17,66c0,1.7-1.3,3-3,3h-30c-1.7,0-3-1.3-3-3V36c0-1.7,1.3-3,3-3h30c1.7,0,3,1.3,3,3V66z
	 M-10,42v3h3v-3H-10z M-4,54h9v-3h-9V54z"/>
</svg>
