<?xml version="1.0" encoding="UTF-8" standalone="no"?>
<!DOCTYPE svg PUBLIC "-//W3C//DTD SVG 1.1//EN" "http://www.w3.org/Graphics/SVG/1.1/DTD/svg11.dtd">
<svg width="100%" height="100%" viewBox="0 0 1967 1967" version="1.1" xmlns="http://www.w3.org/2000/svg" xmlns:xlink="http://www.w3.org/1999/xlink" xml:space="preserve" xmlns:serif="http://www.serif.com/" style="fill-rule:evenodd;clip-rule:evenodd;stroke-linejoin:round;stroke-miterlimit:2;">
    <g transform="matrix(0.24,0,0,0.24,0,0)">
        <g transform="matrix(1.09634,0,0,1.09634,-477.982,-505.645)">
            <path d="M4898.11,5465.12C4465.73,5786.01 3930.43,5975.91 3351.12,5975.91C1916.39,5975.91 751.573,4811.09 751.573,3376.36C751.573,1941.63 1916.39,776.805 3351.12,776.805C4785.86,776.805 5950.68,1941.63 5950.68,3376.36C5950.68,3955.66 5760.78,4490.96 5439.88,4923.34L7536.44,7019.89C7611.19,7094.65 7611.19,7216.03 7536.44,7290.78L7265.55,7561.67C7190.8,7636.42 7069.41,7636.42 6994.66,7561.67L4898.11,5465.12ZM3351.12,1346.88C2231.03,1346.88 1321.65,2256.26 1321.65,3376.36C1321.65,4496.45 2231.03,5405.83 3351.12,5405.83C4471.22,5405.83 5380.6,4496.45 5380.6,3376.36C5380.6,2256.26 4471.22,1346.88 3351.12,1346.88Z"/>
        </g>
    </g>
</svg>
