<?xml version="1.0" encoding="utf-8"?>
<!-- Generator: Adobe Illustrator 19.0.0, SVG Export Plug-In . SVG Version: 6.00 Build 0)  -->
<svg version="1.1" id="Layer_1" xmlns="http://www.w3.org/2000/svg" xmlns:xlink="http://www.w3.org/1999/xlink" x="0px" y="0px"
	 viewBox="-25 27 48 48" style="enable-background:new -25 27 48 48;" xml:space="preserve">
<path d="M-1,75c-13.3,0-24-10.7-24-24s10.7-24,24-24s24,10.7,24,24S12.3,75-1,75z M-1,33c-9.9,0-18,8.1-18,18s8.1,18,18,18
	s18-8.1,18-18S8.9,33-1,33z M-9.5,59.5c-2.3-2.3,1.9-10.4,4.2-12.7c2.3-2.3,10.4-6.6,12.7-4.2c2.3,2.3-1.9,10.4-4.2,12.7
	S-7.1,61.8-9.5,59.5z M5.4,44.6c-1.2-1.2-7.3,3.1-8.5,4.2l4.2,4.2C2.3,51.9,6.5,45.8,5.4,44.6z"/>
</svg>
