<?xml version="1.0" encoding="utf-8"?>
<!-- Generator: Adobe Illustrator 19.0.0, SVG Export Plug-In . SVG Version: 6.00 Build 0)  -->
<svg version="1.1" id="Layer_1" xmlns="http://www.w3.org/2000/svg" xmlns:xlink="http://www.w3.org/1999/xlink" x="0px" y="0px"
	 viewBox="-25 27 48 48" style="enable-background:new -25 27 48 48;" xml:space="preserve">
<path d="M21.6,67.2L11.1,56.7c1.8-3,2.9-6.4,2.9-10.2C14,35.7,5.3,27-5.5,27S-25,35.7-25,46.5S-16.3,66-5.5,66
	c3.8,0,7.2-1.1,10.2-2.9l10.5,10.5c1.8,1.8,4.6,1.8,6.4,0S23.4,69,21.6,67.2z M-5.5,60C-13,60-19,54-19,46.5S-13,33-5.5,33
	S8,39,8,46.5S2,60-5.5,60z"/>
</svg>
