<?xml version="1.0" encoding="utf-8"?>
<!-- Generator: Adobe Illustrator 19.0.0, SVG Export Plug-In . SVG Version: 6.00 Build 0)  -->
<svg version="1.1" id="Layer_1" xmlns="http://www.w3.org/2000/svg" xmlns:xlink="http://www.w3.org/1999/xlink" x="0px" y="0px"
	 viewBox="-25 27 48 48" style="enable-background:new -25 27 48 48;" xml:space="preserve">
<path d="M-16,75h30c5,0,9-4,9-9V36c0-5-4-9-9-9h-30c-5,0-9,4-9,9v30C-25,71-21,75-16,75z M-19,36c0-1.7,1.3-3,3-3h30
	c1.7,0,3,1.3,3,3v30c0,1.7-1.3,3-3,3h-30c-1.7,0-3-1.3-3-3V36z M-4,54h-9v9h9V54z M-4,39h-9v9h9V39z M11,39H2v24h9V39z"/>
</svg>
