<?xml version="1.0" encoding="utf-8"?>
<!-- Generator: Adobe Illustrator 19.0.0, SVG Export Plug-In . SVG Version: 6.00 Build 0)  -->
<svg version="1.1" id="Layer_1" xmlns="http://www.w3.org/2000/svg" xmlns:xlink="http://www.w3.org/1999/xlink" x="0px" y="0px"
	 viewBox="-25 27 48 48" style="enable-background:new -25 27 48 48;" xml:space="preserve">
<path d="M-1,72c-16.2,0-24-21-24-21s7.8-21,24-21s24,21,24,21S15.2,72-1,72z M-1,36c-8.3,0-15,6.7-15,15s6.7,15,15,15s15-6.7,15-15
	S7.3,36-1,36z M-1,60c-5,0-9-4-9-9c0-1.1,0.2-2.1,0.6-3H-4v-5.4c0.9-0.3,1.9-0.6,3-0.6c5,0,9,4,9,9S4,60-1,60z"/>
</svg>
